<svg xmlns="http://www.w3.org/2000/svg" viewBox="0 0 101 101"><defs><style>.cls-1{fill:silver;}.cls-1,.cls-2{stroke:#000;stroke-miterlimit:10;}.cls-2{fill:#b79a00;}</style></defs><title>Asset 3</title><g id="Layer_2" data-name="Layer 2"><g id="Layer_1-2" data-name="Layer 1"><path class="cls-1" d="M93.42,85.36Q81.54,100.5,66.07,100.5a30.52,30.52,0,0,1-15.9-4.31,43.34,43.34,0,0,1-12.6-11.38,56,56,0,0,1-8.34-16,57.53,57.53,0,0,1-3-18.4,60.65,60.65,0,0,1,2.94-18.89,52.52,52.52,0,0,1,8.22-15.9,41.6,41.6,0,0,1,12.48-11A31.26,31.26,0,0,1,65.59.5,38.24,38.24,0,0,1,77,2.1a32.34,32.34,0,0,1,9.18,4.44,30.81,30.81,0,0,1,7,6.81,43.26,43.26,0,0,1,5,8.68l-6.48,5q-4.2-9.16-10.92-13.47A27.64,27.64,0,0,0,65.47,9.25a24.12,24.12,0,0,0-12.78,3.47A32.35,32.35,0,0,0,43,22a44.65,44.65,0,0,0-6.18,13.19A54.74,54.74,0,0,0,34.63,50.5a50.44,50.44,0,0,0,2.46,15.83,43.73,43.73,0,0,0,6.78,13.13,34.22,34.22,0,0,0,10.14,9,25.06,25.06,0,0,0,12.66,3.33,26.94,26.94,0,0,0,14-4q6.66-4,12.78-12.57V58.83h-19v-7.5h26V99.81H93.42Z"/><path class="cls-2" d="M67.69,85.36Q55.81,100.5,40.33,100.5a30.45,30.45,0,0,1-15.89-4.31,43.34,43.34,0,0,1-12.6-11.38,56,56,0,0,1-8.34-16,57.53,57.53,0,0,1-3-18.4A60.65,60.65,0,0,1,3.44,31.47a52.52,52.52,0,0,1,8.22-15.9,41.6,41.6,0,0,1,12.48-11A31.22,31.22,0,0,1,39.85.5a38.26,38.26,0,0,1,11.4,1.6,32.34,32.34,0,0,1,9.18,4.44,30.81,30.81,0,0,1,7,6.81,43.26,43.26,0,0,1,5,8.68l-6.48,5Q61.69,17.87,55,13.56A27.64,27.64,0,0,0,39.73,9.25,24.06,24.06,0,0,0,27,12.72,32.35,32.35,0,0,0,17.24,22a44.65,44.65,0,0,0-6.18,13.19A54.74,54.74,0,0,0,8.9,50.5a50.44,50.44,0,0,0,2.46,15.83,43.73,43.73,0,0,0,6.78,13.13,34.09,34.09,0,0,0,10.14,9,25,25,0,0,0,12.65,3.33,27,27,0,0,0,14-4q6.66-4,12.78-12.57V58.83h-19v-7.5h26V99.81H67.69Z"/></g></g></svg>