<svg xmlns="http://www.w3.org/2000/svg" viewBox="0 0 380.49 101.21"><defs><style>.cls-1,.cls-3{fill:silver;}.cls-1,.cls-2,.cls-3{stroke:#000;}.cls-1,.cls-2{stroke-miterlimit:10;}.cls-2{fill:#b79a00;}</style></defs><title>Asset 7</title><g id="Layer_2" data-name="Layer 2"><g id="Layer_1-2" data-name="Layer 1"><path class="cls-1" d="M93.42,85.36Q81.54,100.5,66.07,100.5a30.52,30.52,0,0,1-15.9-4.31,43.34,43.34,0,0,1-12.6-11.38,56,56,0,0,1-8.34-16,57.53,57.53,0,0,1-3-18.4,60.65,60.65,0,0,1,2.94-18.89,52.52,52.52,0,0,1,8.22-15.9,41.6,41.6,0,0,1,12.48-11A31.26,31.26,0,0,1,65.59.5,38.24,38.24,0,0,1,77,2.1a32.34,32.34,0,0,1,9.18,4.44,30.81,30.81,0,0,1,7,6.81,43.26,43.26,0,0,1,5,8.68l-6.48,5q-4.2-9.16-10.92-13.47A27.64,27.64,0,0,0,65.47,9.25a24.12,24.12,0,0,0-12.78,3.47A32.35,32.35,0,0,0,43,22a44.65,44.65,0,0,0-6.18,13.19A54.74,54.74,0,0,0,34.63,50.5a50.44,50.44,0,0,0,2.46,15.83,43.73,43.73,0,0,0,6.78,13.13,34.22,34.22,0,0,0,10.14,9,25.06,25.06,0,0,0,12.66,3.33,26.94,26.94,0,0,0,14-4q6.66-4,12.78-12.57V58.83h-19v-7.5h26V99.81H93.42Z"/><path class="cls-2" d="M67.69,85.36Q55.81,100.5,40.33,100.5a30.45,30.45,0,0,1-15.89-4.31,43.34,43.34,0,0,1-12.6-11.38,56,56,0,0,1-8.34-16,57.53,57.53,0,0,1-3-18.4A60.65,60.65,0,0,1,3.44,31.47a52.52,52.52,0,0,1,8.22-15.9,41.6,41.6,0,0,1,12.48-11A31.22,31.22,0,0,1,39.85.5a38.26,38.26,0,0,1,11.4,1.6,32.34,32.34,0,0,1,9.18,4.44,30.81,30.81,0,0,1,7,6.81,43.26,43.26,0,0,1,5,8.68l-6.48,5Q61.69,17.87,55,13.56A27.64,27.64,0,0,0,39.73,9.25,24.06,24.06,0,0,0,27,12.72,32.35,32.35,0,0,0,17.24,22a44.65,44.65,0,0,0-6.18,13.19A54.74,54.74,0,0,0,8.9,50.5a50.44,50.44,0,0,0,2.46,15.83,43.73,43.73,0,0,0,6.78,13.13,34.09,34.09,0,0,0,10.14,9,25,25,0,0,0,12.65,3.33,27,27,0,0,0,14-4q6.66-4,12.78-12.57V58.83h-19v-7.5h26V99.81H67.69Z"/><path class="cls-3" d="M129.71,52.93h3.94l19.69,47.38H148.4L142.26,85.5H121l-6.08,14.81h-5Zm11.48,28.9L131.64,58.4,122,81.83Z"/><path class="cls-3" d="M192.65,93.37q-6.61,7.27-15.22,7.28a19.09,19.09,0,0,1-8.84-2.07,23.24,23.24,0,0,1-7-5.47,25.79,25.79,0,0,1-4.64-7.71,24.34,24.34,0,0,1-1.67-8.85,25.48,25.48,0,0,1,1.64-9.07,24.25,24.25,0,0,1,4.57-7.65,22.45,22.45,0,0,1,6.94-5.27,19.56,19.56,0,0,1,8.74-2,24.53,24.53,0,0,1,6.34.77,18.88,18.88,0,0,1,5.11,2.14,16.15,16.15,0,0,1,3.87,3.27,20.29,20.29,0,0,1,2.77,4.17l-3.6,2.4a15.35,15.35,0,0,0-6.08-6.47,17.17,17.17,0,0,0-8.47-2.07A14.92,14.92,0,0,0,170,58.47a17.09,17.09,0,0,0-5.41,4.43,20.37,20.37,0,0,0-3.43,6.35,22.69,22.69,0,0,0-1.21,7.37,21.3,21.3,0,0,0,1.37,7.61,20.29,20.29,0,0,0,3.77,6.31,18.4,18.4,0,0,0,5.64,4.3,15.65,15.65,0,0,0,7,1.6,16.78,16.78,0,0,0,7.78-1.9,23.07,23.07,0,0,0,7.11-6V80.63H182.1V77h14.49v23.29h-3.94Z"/><path class="cls-3" d="M238,96.18v4.13H206.2V52.93h31.23v4.13H210.87V74.15H234v3.94H210.87V96.18Z"/><path class="cls-3" d="M251.51,61.6v38.71h-4.67V52.93h3.61l31.37,39.44V53h4.67v47.32h-4.07Z"/><path class="cls-3" d="M295.23,76.29a25.32,25.32,0,0,1,1.5-8.51,23.66,23.66,0,0,1,4.37-7.58,22.5,22.5,0,0,1,7.08-5.44,21,21,0,0,1,9.54-2.1,19.82,19.82,0,0,1,10.85,2.87A17.49,17.49,0,0,1,335.21,63l-3.67,2.27a14,14,0,0,0-2.77-3.93,15.39,15.39,0,0,0-3.51-2.61,14.93,14.93,0,0,0-3.87-1.43,18.42,18.42,0,0,0-3.93-.44,15.84,15.84,0,0,0-7.55,1.74,17.36,17.36,0,0,0-5.5,4.54A19.68,19.68,0,0,0,301,69.45a22.78,22.78,0,0,0-1.14,7.1,21.17,21.17,0,0,0,1.37,7.55A21.4,21.4,0,0,0,305,90.47a18,18,0,0,0,5.6,4.4,15.3,15.3,0,0,0,7.05,1.64,17.87,17.87,0,0,0,4.1-.5,15.81,15.81,0,0,0,4.07-1.6,17.38,17.38,0,0,0,3.64-2.74,14.22,14.22,0,0,0,2.8-4l3.87,2a14.42,14.42,0,0,1-3.2,4.71,20.86,20.86,0,0,1-4.61,3.43A22.73,22.73,0,0,1,323,100a22.15,22.15,0,0,1-5.57.73,19,19,0,0,1-8.95-2.13,23.33,23.33,0,0,1-7-5.57,26,26,0,0,1-4.58-7.81A25.29,25.29,0,0,1,295.23,76.29Z"/><path class="cls-3" d="M343.42,52.93,358.9,78.42l15.62-25.49h5.07L361.24,82.69v17.62h-4.67V82.56L338.28,52.93Z"/></g></g></svg>